# File created by Blade
# Date/Time:  Fri Jan 16 17:25:32 2015
#---------------------------------------------------------
:version 1.10
:name HOM
:units
  mass 1.0
  length 1.000000
  angle deg
:documentation
     Acclaim Skeleton File
:root
   axis xyz
   order TX TY TZ RX RY RZ
   position 0.000000 0.000000 0.000000
   orientation 0 0 0
:bonedata
   begin
      id 1
      name Spine_dum
      direction 0.000000 1.000000 0.000000
      length 7.170412
      axis 0.0 0.0 0.0 xyz
   end
   begin
      id 2
      name LeftUpLeg_dum
      direction 1.000000 0.000000 0.000000
      length 4.318350
      axis 0.0 0.0 0.0 xyz
   end
   begin
      id 3
      name RightUpLeg_dum
      direction -1.000000 0.000000 0.000000
      length 4.318350
      axis 0.0 0.0 0.0 xyz
   end
   begin
      id 4
      name Spine
      direction 0.000000 1.000000 0.000000
      length 0.000000
      axis 0.0 0.0 0.0 xyz
      dof rx ry rz
   end
   begin
      id 5
      name Spine_dum1
      direction 0.000000 1.000000 0.000000
      length 14.276153
      axis 0.0 0.0 0.0 xyz
   end
   begin
      id 6
      name Spine_dum2
      direction 0.000000 1.000000 0.000000
      length 10.718243
      axis 0.0 0.0 0.0 xyz
   end
   begin
      id 7
      name Spine_dum3
      direction 0.000000 1.000000 0.000000
      length 10.718243
      axis 0.0 0.0 0.0 xyz
   end
   begin
      id 8
      name Head
      direction 0.000000 1.000000 0.000000
      length 4.527550
      axis 0.0 0.0 0.0 xyz
      dof rx ry rz
   end
   begin
      id 9
      name LeftShoulder
      direction 1.000000 0.000000 0.000000
      length 7.058872
      axis 0.0 0.0 -90.0 xyz
      dof rx ry rz
   end
   begin
      id 10
      name LeftArm
      direction 1.000000 0.000000 0.000000
      length 10.955525
      axis 0.0 0.0 -90.0 xyz
      dof rx ry rz
   end
   begin
      id 11
      name LeftForeArm
      direction 1.000000 0.000000 0.000000
      length 8.193716
      axis 0.0 0.0 -90.0 xyz
      dof ry rz rx
   end
   begin
      id 12
      name LeftHand
      direction 0.000000 0.000000 0.000000
      length 0.000000
      axis 0.0 0.0 -90.0 xyz
      dof rx ry rz
   end
   begin
      id 13
      name LeftHand_dum1
      direction 0.000000 0.000000 0.000000
      length 0.000000
      axis 0.0 0.0 -90.0 xyz
   end
   begin
      id 14
      name LeftHand_dum2
      direction 1.000000 0.000000 0.000000
      length 3.937000
      axis 0.0 0.0 -90.0 xyz
   end
   begin
      id 15
      name LeftHandThumb1
      direction 0.000000 0.000000 1.000000
      length 3.937000
      axis 0.0 0.0 -90.0 xyz
      dof rx rz ry
   end
   begin
      id 16
      name RightShoulder
      direction -1.000000 0.000000 0.000000
      length 7.058872
      axis 0.0 0.0 90.0 xyz
      dof rx ry rz
   end
   begin
      id 17
      name RightArm
      direction -1.000000 0.000000 0.000000
      length 10.955525
      axis 0.0 0.0 90.0 xyz
      dof rx ry rz
   end
   begin
      id 18
      name RightForeArm
      direction -1.000000 0.000000 0.000000
      length 8.193716
      axis 0.0 0.0 90.0 xyz
      dof ry rz rx
   end
   begin
      id 19
      name RightHand
      direction 0.000000 0.000000 0.000000
      length 0.000000
      axis 0.0 0.0 90.0 xyz
      dof rx ry rz
   end
   begin
      id 20
      name RightHand_dum1
      direction 0.000000 0.000000 0.000000
      length 0.000000
      axis 0.0 0.0 90.0 xyz
   end
   begin
      id 21
      name RightHand_dum2
      direction -1.000000 0.000000 0.000000
      length 3.937000
      axis 0.0 0.0 90.0 xyz
   end
   begin
      id 22
      name RightHandThumb1
      direction 0.000000 0.000000 1.000000
      length 3.937000
      axis 0.0 0.0 90.0 xyz
      dof rx rz ry
   end
   begin
      id 23
      name LeftUpLeg
      direction 0.000000 -1.000000 0.000000
      length 17.323638
      axis 0.0 0.0 0.0 xyz
      dof rx ry rz
   end
   begin
      id 24
      name LeftLeg
      direction 0.000000 -1.000000 0.000000
      length 16.270368
      axis 0.0 0.0 0.0 xyz
      dof rx ry rz
   end
   begin
      id 25
      name LeftFoot
      direction 0.000000 -0.258819 0.965926
      length 4.922846
      axis 15.0 0.0 0.0 xyz
      dof rx ry rz
   end
   begin
      id 26
      name LeftToeBase
      direction 0.000000 0.000000 1.000000
      length 2.952750
      axis 0.0 0.0 0.0 xyz
      dof rx ry rz
   end
   begin
      id 27
      name RightUpLeg
      direction 0.000000 -1.000000 0.000000
      length 17.323638
      axis 0.0 0.0 0.0 xyz
      dof rx ry rz
   end
   begin
      id 28
      name RightLeg
      direction 0.000000 -1.000000 0.000000
      length 16.270368
      axis 0.0 0.0 0.0 xyz
      dof rx ry rz
   end
   begin
      id 29
      name RightFoot
      direction 0.000000 -0.258819 0.965926
      length 4.922846
      axis 15.0 0.0 0.0 xyz
      dof rx ry rz
   end
   begin
      id 30
      name RightToeBase
      direction 0.000000 0.000000 1.000000
      length 2.952750
      axis 0.0 0.0 0.0 xyz
      dof rx ry rz
   end
:hierarchy
   begin
      root Spine_dum LeftUpLeg_dum RightUpLeg_dum
      Spine_dum Spine
      LeftUpLeg_dum LeftUpLeg
      RightUpLeg_dum RightUpLeg
      Spine Spine_dum1 Spine_dum2 Spine_dum3
      Spine_dum1 Head
      Spine_dum2 LeftShoulder
      Spine_dum3 RightShoulder
      LeftShoulder LeftArm
      LeftArm LeftForeArm
      LeftForeArm LeftHand
      LeftHand LeftHand_dum1 LeftHand_dum2
      LeftHand_dum1 LeftHandThumb1
      RightShoulder RightArm
      RightArm RightForeArm
      RightForeArm RightHand
      RightHand RightHand_dum1 RightHand_dum2
      RightHand_dum1 RightHandThumb1
      LeftUpLeg LeftLeg
      LeftLeg LeftFoot
      LeftFoot LeftToeBase
      RightUpLeg RightLeg
      RightLeg RightFoot
      RightFoot RightToeBase
   end

# File created by Blade
# Date/Time:  Fri Jan 16 17:25:22 2015
# Frame Rate: 120.000 fps
#------------------------------------------------------
:FULLY-SPECIFIED
:DEGREES
477
root -5.796447 35.262314 -10.853129 -3.765631 -7.662041 -5.981602
Spine 3.825459 3.130880 9.246343
Head 3.426902 8.369610 -5.610083
LeftShoulder -19.399511 15.368305 -15.708316
LeftArm 26.236963 17.604495 -66.703269
LeftForeArm 11.043248 0.000000 15.381016
LeftHand 1.204338 -0.000000 -7.718128
LeftHandThumb1 -26.253704 0.000000 33.147579
RightShoulder 0.528516 -2.168139 2.230063
RightArm 19.395961 -51.751740 57.838262
RightForeArm -25.213707 0.000000 20.973874
RightHand 2.415684 0.000000 11.833176
RightHandThumb1 -24.326973 -0.000000 -32.862282
LeftUpLeg 12.793152 15.750864 8.381263
LeftLeg -8.723537 -0.000000 0.000000
LeftFoot -14.521518 28.724270 -7.780907
LeftToeBase 22.914304 -0.000000 -0.000000
RightUpLeg 8.759952 -6.193065 2.702119
RightLeg -4.076905 -0.000000 0.000000
RightFoot -3.515922 -22.668271 5.262988
RightToeBase 13.794667 -0.000000 -0.000000
478
root -5.795019 35.262534 -10.855884 -3.792700 -7.644645 -5.974614
Spine 3.833682 3.239773 9.262414
Head 3.478726 8.280934 -5.680616
LeftShoulder -19.378771 15.361333 -15.710828
LeftArm 26.263010 17.637101 -66.652461
LeftForeArm 11.009883 -0.000000 15.379921
LeftHand 1.233597 -0.000000 -7.718546
LeftHandThumb1 -26.253704 0.000000 33.147579
RightShoulder 0.767595 -2.075681 2.139725
RightArm 20.132025 -52.508892 57.226446
RightForeArm -25.548533 -0.000000 20.752466
RightHand 2.411341 -0.000000 11.934864
RightHandThumb1 -24.326973 -0.000000 -32.862282
LeftUpLeg 12.811338 15.737187 8.375752
LeftLeg -8.727349 -0.000000 0.000000
LeftFoot -14.511386 28.727092 -7.772129
LeftToeBase 22.928219 -0.000000 -0.000000
RightUpLeg 8.784573 -6.189801 2.694223
RightLeg -4.083081 -0.000000 0.000000
RightFoot -3.518586 -22.700174 5.242244
RightToeBase 13.853328 -0.000000 -0.000000
479
root -5.804977 35.263484 -10.863867 -3.807031 -7.640908 -5.981562
Spine 3.839228 3.411030 9.235185
Head 3.525381 8.158453 -5.636433
LeftShoulder -19.306435 15.346965 -15.645083
LeftArm 26.272761 17.635233 -66.630024
LeftForeArm 11.056639 0.000000 15.376134
LeftHand 1.246273 -0.000000 -7.723334
LeftHandThumb1 -26.253704 0.000000 33.147579
RightShoulder 0.996936 -1.956006 2.126369
RightArm 20.792399 -53.127189 56.683571
RightForeArm -26.195524 -0.000000 20.584297
RightHand 2.565181 -0.000000 12.662839
RightHandThumb1 -24.326973 -0.000000 -32.862282
LeftUpLeg 12.803206 15.780321 8.412769
LeftLeg -8.698878 -0.000000 0.000000
LeftFoot -14.514939 28.656411 -7.779366
LeftToeBase 22.939925 -0.000000 -0.000000
RightUpLeg 8.782512 -6.173776 2.728806
RightLeg -4.074361 -0.000000 0.000000
RightFoot -3.498717 -22.766395 5.175395
RightToeBase 13.859165 -0.000000 -0.000000
480
root -5.798886 35.263907 -10.869305 -3.821636 -7.596761 -5.968879
Spine 3.834827 3.512337 9.271152
Head 3.569384 8.080164 -5.726044
LeftShoulder -19.260967 15.339035 -15.661379
LeftArm 26.292165 17.693516 -66.577114
LeftForeArm 10.961134 -0.000000 15.378202
LeftHand 1.230284 0.000000 -7.775028
LeftHandThumb1 -26.253704 0.000000 33.147579
RightShoulder 1.380670 -1.770323 2.053439
RightArm 21.092084 -53.355549 56.444588
RightForeArm -27.249276 -0.000000 20.413415
RightHand 3.423195 -0.000000 13.939605
RightHandThumb1 -24.326973 -0.000000 -32.862282
LeftUpLeg 12.783879 15.721503 8.381265
LeftLeg -8.679522 -0.000000 0.000000
LeftFoot -14.510103 28.676239 -7.783260
LeftToeBase 22.892771 -0.000000 -0.000000
RightUpLeg 8.790615 -6.211965 2.702519
RightLeg -4.077446 -0.000000 0.000000
RightFoot -3.498387 -22.761949 5.220340
RightToeBase 13.825180 -0.000000 -0.000000
481
root -5.793717 35.264472 -10.869253 -3.875881 -7.556902 -5.964679
Spine 3.859177 3.604442 9.310660
Head 3.648649 7.965389 -5.814373
LeftShoulder -19.207894 15.351433 -15.654924
LeftArm 26.296956 17.673128 -66.594868
LeftForeArm 11.028002 0.000000 15.378320
LeftHand 1.149547 -0.000000 -7.865954
LeftHandThumb1 -26.253704 0.000000 33.147579
RightShoulder 1.673108 -1.762433 1.900116
RightArm 22.005317 -53.979270 55.751652
RightForeArm -27.554302 -0.000000 20.162839
RightHand 3.493583 -0.000000 14.318588
RightHandThumb1 -24.326973 -0.000000 -32.862282
LeftUpLeg 12.832204 15.706435 8.380470
LeftLeg -8.694300 -0.000000 0.000000
LeftFoot -14.502015 28.662250 -7.782856
LeftToeBase 22.926041 -0.000000 -0.000000
RightUpLeg 8.859897 -6.257261 2.678102
RightLeg -4.101587 -0.000000 0.000000
RightFoot -3.486901 -22.742704 5.245820
RightToeBase 13.834606 -0.000000 -0.000000
482
root -5.788655 35.264750 -10.874386 -3.899099 -7.550208 -5.949478
Spine 3.859293 3.747239 9.322069
Head 3.718075 7.867332 -5.846555
LeftShoulder -19.160806 15.353764 -15.635541
LeftArm 26.320934 17.706097 -66.590371
LeftForeArm 11.078675 -0.000000 15.360958
LeftHand 1.143542 -0.000000 -7.793585
LeftHandThumb1 -26.253704 0.000000 33.147579
RightShoulder 1.844728 -1.807287 1.775886
RightArm 23.623499 -55.198429 54.289052
RightForeArm -27.356849 -0.000000 19.979396
RightHand 3.190561 0.000000 14.321949
RightHandThumb1 -24.326973 -0.000000 -32.862282
LeftUpLeg 12.843229 15.752473 8.369208
LeftLeg -8.696446 -0.000000 0.000000
LeftFoot -14.473273 28.618012 -7.754693
LeftToeBase 22.946868 -0.000000 -0.000000
RightUpLeg 8.869329 -6.265875 2.652851
RightLeg -4.094997 -0.000000 0.000000
RightFoot -3.479901 -22.735553 5.237183
RightToeBase 13.826606 -0.000000 -0.000000
483
root -5.786607 35.264937 -10.878906 -3.920595 -7.536454 -5.944550
Spine 3.854013 3.859824 9.349254
Head 3.782477 7.835057 -5.887145
LeftShoulder -19.141804 15.376996 -15.637203
LeftArm 26.382705 17.781057 -66.542384
LeftForeArm 11.125219 -0.000000 15.316762
LeftHand 1.163970 -0.000000 -7.847130
LeftHandThumb1 -26.253704 0.000000 33.147579
RightShoulder 2.138324 -1.727464 1.639983
RightArm 24.709149 -55.991552 53.402489
RightForeArm -27.545650 -0.000000 19.764415
RightHand 3.122787 -0.000000 14.445551
RightHandThumb1 -24.326973 -0.000000 -32.862282
LeftUpLeg 12.851267 15.778480 8.369448
LeftLeg -8.690538 -0.000000 0.000000
LeftFoot -14.461565 28.579755 -7.742262
LeftToeBase 22.945350 -0.000000 -0.000000
RightUpLeg 8.885222 -6.273410 2.648421
RightLeg -4.101128 -0.000000 0.000000
RightFoot -3.486424 -22.770165 5.247340
RightToeBase 13.843953 -0.000000 -0.000000
484
root -5.784609 35.265160 -10.883393 -3.948915 -7.525220 -5.929621
Spine 3.860938 3.972930 9.360198
Head 3.832097 7.784531 -5.929123
LeftShoulder -19.112635 15.387726 -15.627032
LeftArm 26.432355 17.834298 -66.518421
LeftForeArm 11.048662 -0.000000 15.276573
LeftHand 1.149550 -0.000000 -7.998560
LeftHandThumb1 -26.253704 0.000000 33.147579
RightShoulder 2.435628 -1.655194 1.509462
RightArm 26.029519 -56.719423 52.357580
RightForeArm -27.589417 -0.000000 19.423189
RightHand 3.227526 -0.000000 14.805985
RightHandThumb1 -24.326973 -0.000000 -32.862282
LeftUpLeg 12.860422 15.748771 8.353091
LeftLeg -8.678507 -0.000000 0.000000
LeftFoot -14.457695 28.593457 -7.749239
LeftToeBase 22.907525 -0.000000 -0.000000
RightUpLeg 8.905898 -6.275849 2.631953
RightLeg -4.106457 -0.000000 0.000000
RightFoot -3.470316 -22.787026 5.196416
RightToeBase 13.872092 -0.000000 -0.000000
485
root -5.783496 35.265971 -10.887736 -3.980678 -7.523337 -5.921958
Spine 3.874211 4.121182 9.367570
Head 3.890061 7.641368 -5.969066
LeftShoulder -19.050471 15.400638 -15.598222
LeftArm 26.458167 17.848894 -66.515718
LeftForeArm 11.245998 -0.000000 15.255498
LeftHand 1.232881 -0.000000 -7.632949
LeftHandThumb1 -26.253704 0.000000 33.147579
RightShoulder 2.751824 -1.534093 1.406490
RightArm 27.004786 -57.264339 51.599558
RightForeArm -27.999695 -0.000000 19.213664
RightHand 3.187117 0.000000 15.153208
RightHandThumb1 -24.326973 -0.000000 -32.862282
LeftUpLeg 12.878332 15.760881 8.351392
LeftLeg -8.670415 -0.000000 0.000000
LeftFoot -14.452089 28.587231 -7.749788
LeftToeBase 22.949166 -0.000000 -0.000000
RightUpLeg 8.927041 -6.280815 2.624049
RightLeg -4.103143 -0.000000 0.000000
RightFoot -3.465988 -22.804894 5.180392
RightToeBase 13.903614 -0.000000 -0.000000
